<?xml version="1.0" encoding="utf-8"?>
<!-- Generator: Adobe Illustrator 17.0.2, SVG Export Plug-In . SVG Version: 6.00 Build 0)  -->
<!DOCTYPE svg PUBLIC "-//W3C//DTD SVG 1.1//EN" "http://www.w3.org/Graphics/SVG/1.1/DTD/svg11.dtd">
<svg version="1.1" id="Layer_1" xmlns="http://www.w3.org/2000/svg" xmlns:xlink="http://www.w3.org/1999/xlink" x="0px" y="0px"
	 width="100px" height="100px" viewBox="0 0 100 100" enable-background="new 0 0 100 100" xml:space="preserve">
<g>
	<path fill="#FFFFFF" d="M63.107,13.616c0-4.567-3.702-8.269-8.269-8.269l-9.675,0c-4.567,0-8.269,3.703-8.269,8.269v22.212h26.213
		L63.107,13.616z"/>
	<path fill="#FFFFFF" d="M36.894,86.384c-0.001,4.566,3.703,8.269,8.269,8.269l9.676,0.001c4.567-0.001,8.269-3.703,8.269-8.269
		V64.173l-26.213-0.001L36.894,86.384z"/>
</g>
<path fill="#FFFFFF" d="M86.385,36.893H63.107H36.894l-23.277-0.001c-4.567,0-8.27,3.703-8.269,8.269v9.675
	c0,4.567,3.703,8.269,8.269,8.269l23.277,0.001h26.213h23.278c4.566,0,8.269-3.703,8.269-8.269v-9.676
	C94.653,40.597,90.952,36.894,86.385,36.893z M56.315,44.638c0.606-0.001,1.098,0.492,1.097,1.097c0,0.606-0.492,1.099-1.098,1.098
	c-0.606,0.001-1.098-0.492-1.097-1.097C55.216,45.13,55.708,44.638,56.315,44.638z M55.346,50c-0.001,0.607-0.492,1.099-1.099,1.099
	c-0.606,0-1.099-0.492-1.099-1.099c0.001-0.606,0.492-1.097,1.099-1.099C54.854,48.902,55.346,49.394,55.346,50z M54.247,40.297
	c0.606,0,1.098,0.492,1.099,1.099c0,0.606-0.492,1.098-1.098,1.098s-1.098-0.492-1.099-1.099
	C53.149,40.788,53.64,40.297,54.247,40.297z M52.051,44.638c0.606,0.001,1.097,0.492,1.098,1.098c0,0.606-0.492,1.099-1.099,1.099
	s-1.098-0.492-1.098-1.098C50.953,45.13,51.445,44.638,52.051,44.638z M49.983,40.297c0.606,0.001,1.097,0.492,1.099,1.099
	c0,0.606-0.492,1.098-1.098,1.098s-1.098-0.492-1.099-1.099C48.886,40.789,49.378,40.297,49.983,40.297z M49.983,48.902
	c0.606,0,1.098,0.492,1.098,1.098s-0.492,1.098-1.099,1.099c-0.606,0-1.098-0.492-1.098-1.098
	C48.885,49.393,49.377,48.902,49.983,48.902z M45.694,40.297c0.606,0,1.098,0.492,1.098,1.098c0.001,0.606-0.492,1.098-1.098,1.098
	s-1.098-0.492-1.098-1.098S45.088,40.297,45.694,40.297z M46.793,50c0,0.606-0.492,1.098-1.098,1.098
	c-0.607,0.001-1.099-0.491-1.099-1.099c0-0.606,0.492-1.098,1.098-1.098C46.3,48.902,46.793,49.394,46.793,50z M43.498,44.638
	c0.606,0,1.099,0.492,1.099,1.099c0,0.606-0.492,1.099-1.099,1.099S42.4,46.343,42.4,45.736C42.4,45.13,42.892,44.638,43.498,44.638
	z M41.43,40.297c0.606,0,1.098,0.492,1.098,1.098s-0.492,1.099-1.099,1.099s-1.098-0.492-1.098-1.098
	C40.332,40.789,40.824,40.297,41.43,40.297z M41.43,48.902c0.606,0,1.098,0.492,1.099,1.099c0,0.606-0.492,1.098-1.098,1.098
	c-0.607,0.001-1.099-0.491-1.099-1.099C40.333,49.394,40.824,48.902,41.43,48.902z M41.43,59.703c-0.606,0-1.098-0.492-1.098-1.098
	s0.492-1.098,1.098-1.098c0.606,0,1.098,0.492,1.098,1.098C42.529,59.212,42.037,59.703,41.43,59.703z M43.498,55.439
	c-0.606,0-1.098-0.492-1.098-1.098s0.492-1.098,1.099-1.099c0.606,0,1.098,0.492,1.098,1.098
	C44.596,54.947,44.104,55.439,43.498,55.439z M45.695,59.703c-0.606,0-1.099-0.492-1.098-1.098
	c-0.001-0.607,0.491-1.099,1.098-1.098c0.606-0.001,1.098,0.492,1.098,1.098C46.793,59.212,46.301,59.703,45.695,59.703z
	 M47.761,55.439c-0.607-0.001-1.099-0.492-1.099-1.099c0-0.606,0.492-1.098,1.098-1.098s1.098,0.492,1.099,1.099
	C48.86,54.947,48.368,55.439,47.761,55.439z M47.761,46.834c-0.606,0-1.098-0.492-1.098-1.098c0-0.606,0.492-1.099,1.098-1.098
	c0.606,0,1.098,0.492,1.098,1.098C48.86,46.342,48.368,46.834,47.761,46.834z M49.983,59.703c-0.606,0.001-1.098-0.492-1.098-1.098
	s0.492-1.099,1.099-1.099c0.606,0,1.099,0.492,1.098,1.098C51.082,59.211,50.59,59.703,49.983,59.703z M52.051,55.439
	c-0.606,0-1.099-0.492-1.098-1.098c0-0.606,0.492-1.099,1.099-1.099c0.606-0.001,1.098,0.492,1.098,1.098
	C53.149,54.947,52.657,55.439,52.051,55.439z M54.248,59.703c-0.606,0-1.099-0.492-1.099-1.099c0.001-0.606,0.493-1.098,1.099-1.099
	c0.606,0,1.099,0.492,1.099,1.099S54.854,59.703,54.248,59.703z M56.314,55.439c-0.606,0.001-1.098-0.492-1.097-1.097
	c0-0.606,0.492-1.098,1.098-1.098c0.606-0.001,1.098,0.492,1.097,1.097C57.413,54.948,56.921,55.439,56.314,55.439z M58.511,59.703
	c-0.606,0.001-1.098-0.492-1.098-1.098c0-0.606,0.492-1.098,1.099-1.099c0.607-0.001,1.099,0.492,1.098,1.098
	C59.609,59.211,59.118,59.703,58.511,59.703z M58.511,51.098c-0.606,0.001-1.098-0.492-1.098-1.098
	c-0.001-0.606,0.492-1.098,1.098-1.098c0.606,0,1.099,0.492,1.098,1.098C59.609,50.606,59.117,51.098,58.511,51.098z M58.511,42.493
	c-0.606,0-1.098-0.492-1.098-1.098c-0.001-0.606,0.492-1.098,1.098-1.098c0.606,0,1.098,0.492,1.098,1.098
	C59.609,42.001,59.117,42.493,58.511,42.493z"/>
</svg>
