<?xml version="1.0" encoding="utf-8"?>
<!-- Generator: Adobe Illustrator 17.0.2, SVG Export Plug-In . SVG Version: 6.00 Build 0)  -->
<!DOCTYPE svg PUBLIC "-//W3C//DTD SVG 1.1//EN" "http://www.w3.org/Graphics/SVG/1.1/DTD/svg11.dtd">
<svg version="1.1" id="Layer_1" xmlns="http://www.w3.org/2000/svg" xmlns:xlink="http://www.w3.org/1999/xlink" x="0px" y="0px"
	 width="100px" height="100px" viewBox="0 0 100 100" enable-background="new 0 0 100 100" xml:space="preserve">
<path fill="#FFFFFF" d="M42.699,49.048c0.717-0.756,1.37-1.58,1.934-2.506c0.393-0.647,1.225-0.873,1.888-0.494
	c4.342,2.478,7.153,6.866,11.446,9.402c0.912,0.539,0.873,1.836,0,2.382c-2.964,1.858-3.496,6.508-2.595,9.602
	c0.569,1.953,1.77,3.755,3.905,4.202c2.384,0.499,5.022-0.656,6.905-2.084c4.518-3.43,8.137-10.82,14.189-11.074
	c-0.489-1.324-0.919-2.651-1.119-4.08c-0.264-1.883-0.385-3.774-0.439-5.674c-0.353-12.339,1.577-24.632,4.526-36.631
	c-1.648-4.598-5.612-10.928-11.276-9.871c-3.469,0.647-5.977,3.201-8.317,5.669c-2.395,2.525-4.607,5.213-6.928,7.805
	c-3.158,3.531-8.445,10.24-13.944,7.516c-1.138-0.564-2.09-1.387-2.899-2.368c1.518,7.33,2.64,14.777,2.759,22.264
	C42.762,45.08,42.755,47.065,42.699,49.048z"/>
<path fill="#FFFFFF" d="M83.263,65.511c-0.548-1.41-1.194-2.778-1.78-4.172c-3.692-0.396-6.56,2.899-8.895,5.542
	c-3.035,3.438-6.308,7.066-11.187,7.581c-9.219,0.974-11.786-12.013-6.425-17.698c-3.112-2.317-5.554-5.469-8.758-7.644
	c-1.066,1.454-2.328,2.686-3.697,3.811c-0.041,0.664-0.086,1.327-0.14,1.99c-0.299,3.668-0.804,7.401-2.099,10.866
	c-2.382,6.371-7.001,11.08-12.935,14.305c-3.341,1.815-6.983,3.247-10.778,3.698c-1.61,0.192-2.974,0.326-4.377,1.208
	c-1.117,0.704-0.706,3.318-0.706,4.396c0,0.517-0.359,2.974,0,3.352c2.139,2.249,5.34,3.471,8.245,4.289
	c3.852,1.084,7.784,1.591,11.748,2.074c2.734,0.334,5.478,0.718,8.237,0.702c4.615-0.027,9.23-0.127,13.846-0.181
	c3.182-3.492,5.637-7.735,8.851-11.368c2.916-3.298,6.432-5.67,10.481-7.382c3.571-1.508,7.307-2.112,11.13-2.271
	c0.299-2.246,0.494-4.501,0.432-6.762C84.398,69.639,84.067,67.576,83.263,65.511z"/>
<path fill="#FFFFFF" d="M81.072,93.293c0.661-2.854,1.53-5.65,1.998-8.56c0.178-1.111,0.366-2.227,0.545-3.345
	c-3.746,0.199-7.393,0.877-10.832,2.546c-3.937,1.91-7.075,4.453-9.761,7.907c-0.259,0.334-0.513,0.671-0.764,1.009
	c0,0,0.002,0,0.002,0.002c1.783,1.141,3.649,2.134,5.526,3.105C72.292,95.494,76.69,94.43,81.072,93.293z"/>
<path fill="#FFFFFF" d="M61.66,5.504c-2.066-5.26-8.879-6.926-13.525-4.167c-4.714,2.8-7.137,7.853-8.51,12.987
	c0.47,1.228,1.02,2.425,1.707,3.539c0.989,1.602,2.449,3.433,4.558,3.183c2.958-0.348,5.515-3.55,7.404-5.58
	c2.358-2.533,4.55-5.213,6.875-7.776c0.537-0.593,1.101-1.211,1.689-1.831C61.781,5.755,61.714,5.638,61.66,5.504z"/>
</svg>
